<?xml version="1.0" standalone="no"?>
<!DOCTYPE svg PUBLIC "-//W3C//DTD SVG 20010904//EN"
 "http://www.w3.org/TR/2001/REC-SVG-20010904/DTD/svg10.dtd">
<svg version="1.0" xmlns="http://www.w3.org/2000/svg"
 width="160.000000pt" height="160.000000pt" viewBox="0 0 160.000000 160.000000"
 preserveAspectRatio="xMidYMid meet">
<metadata>
Created by potrace 1.14, written by Peter Selinger 2001-2017
</metadata>
<g transform="translate(0.000000,160.000000) scale(0.100000,-0.100000)"
fill="#000000" stroke="none">
<path d="M570 1295 l-145 -155 -3 126 -3 125 -57 -3 -57 -3 -3 -184 c-2 -167
-4 -186 -23 -209 -29 -37 -3 -42 27 -6 22 28 23 36 24 202 l0 172 35 0 35 0 0
-130 c0 -71 3 -130 8 -130 4 0 75 71 158 157 l152 158 143 -150 c268 -280 296
-308 308 -304 10 4 -112 136 -379 412 l-75 78 -145 -156z"/>
<path d="M666 1202 c-13 -12 -5 -52 12 -61 16 -10 16 -10 -1 -11 -14 0 -18 -7
-15 -27 3 -26 6 -28 55 -30 l52 -3 0 69 0 69 -49 0 c-27 0 -51 -3 -54 -6z m59
-62 c3 -5 -1 -10 -10 -10 -9 0 -13 5 -10 10 3 6 8 10 10 10 2 0 7 -4 10 -10z"/>
<path d="M1387 873 c-4 -3 -7 -26 -7 -50 0 -40 -2 -43 -19 -33 -28 14 -38 13
-61 -10 -44 -44 -16 -150 39 -150 11 0 22 4 26 10 3 5 12 7 20 3 13 -4 15 14
15 116 0 67 -1 121 -3 121 -2 0 -7 -3 -10 -7z m-19 -115 c7 -7 12 -26 12 -43
0 -36 -15 -55 -46 -55 -23 0 -34 17 -34 55 0 13 3 30 6 39 7 19 45 21 62 4z"/>
<path d="M676 837 c-48 -48 -39 -165 15 -196 58 -32 109 16 109 104 0 100 -67
149 -124 92z m83 -23 c41 -53 19 -154 -34 -154 -33 0 -55 36 -55 90 0 33 6 53
20 68 27 29 44 28 69 -4z"/>
<path d="M840 750 c0 -67 4 -110 10 -110 6 0 10 17 10 38 0 65 14 69 49 13 17
-28 35 -51 41 -51 15 0 13 5 -20 58 -16 27 -30 55 -30 63 0 8 14 32 30 53 17
22 27 42 24 45 -6 6 -27 -17 -71 -75 l-22 -29 0 53 c-1 28 -5 52 -11 52 -6 0
-10 -43 -10 -110z"/>
<path d="M990 750 l0 -110 44 0 c27 0 51 6 60 16 20 20 21 68 1 88 -9 9 -11
17 -5 21 16 10 12 62 -6 79 -9 9 -32 16 -55 16 l-39 0 0 -110z m84 68 c15 -25
-3 -52 -38 -56 -24 -3 -26 -1 -26 38 0 39 2 41 26 38 15 -2 32 -11 38 -20z
m10 -100 c16 -26 -4 -52 -43 -56 -30 -3 -31 -2 -31 38 0 40 1 41 31 38 18 -2
37 -11 43 -20z"/>
<path d="M1456 819 c-30 -45 -28 -65 3 -28 l20 24 1 -87 c0 -52 4 -88 10 -88
6 0 10 43 10 110 0 61 -4 110 -9 110 -4 0 -21 -18 -35 -41z"/>
<path d="M1140 727 c0 -74 21 -105 62 -91 13 4 29 7 36 6 9 -2 12 18 12 73 0
43 -4 75 -10 75 -5 0 -10 -24 -10 -52 0 -64 -10 -81 -41 -76 -22 3 -24 8 -27
66 -4 81 -22 81 -22 -1z"/>
<path d="M903 435 c-1 -38 2 -61 5 -50 l5 20 7 -20 c5 -13 7 -1 7 33 -1 28 -4
47 -8 40 -4 -7 -9 0 -12 18 -2 16 -4 -2 -4 -41z"/>
<path d="M91 428 c1 -50 3 -57 9 -33 6 24 8 26 9 8 0 -13 5 -23 10 -23 5 0 9
24 8 52 -2 41 -6 53 -19 56 -16 3 -18 -5 -17 -60z m16 20 c-3 -7 -5 -2 -5 12
0 14 2 19 5 13 2 -7 2 -19 0 -25z"/>
<path d="M570 443 c0 -27 5 -55 10 -63 7 -11 10 3 10 48 0 35 -4 62 -10 62 -5
0 -10 -21 -10 -47z"/>
<path d="M1283 430 c0 -36 2 -50 4 -32 2 17 2 47 0 65 -2 17 -4 3 -4 -33z"/>
<path d="M152 424 c3 -47 20 -64 26 -27 3 15 1 16 -7 3 -9 -13 -11 -13 -11 3
0 9 5 17 11 17 15 0 7 42 -9 48 -10 3 -12 -8 -10 -44z m15 14 c-3 -8 -6 -5 -6
6 -1 11 2 17 5 13 3 -3 4 -12 1 -19z"/>
<path d="M201 423 l2 -48 7 40 7 40 2 -40 c3 -41 4 -41 17 10 l8 30 7 -40 7
-40 -2 45 c-1 41 -3 45 -28 48 -27 3 -28 2 -27 -45z"/>
<path d="M282 423 c1 -41 2 -43 5 -13 3 19 9 41 15 47 8 10 6 13 -6 13 -13 0
-16 -10 -14 -47z"/>
<path d="M327 464 c-12 -13 -8 -71 6 -83 16 -12 27 -5 27 18 0 14 -2 14 -10 1
-8 -13 -10 -12 -10 3 0 9 5 17 11 17 13 0 8 42 -7 47 -5 2 -13 0 -17 -3z"/>
<path d="M382 418 l1 -53 7 45 7 45 3 -40 c2 -29 4 -33 7 -15 8 51 17 55 24
10 l7 -45 -2 50 c-1 47 -3 50 -28 53 -28 3 -28 3 -26 -50z"/>
<path d="M462 423 c2 -27 8 -48 13 -48 6 0 11 21 13 48 3 38 0 47 -13 47 -13
0 -16 -9 -13 -47z m15 -15 c-2 -13 -4 -5 -4 17 -1 22 1 32 4 23 2 -10 2 -28 0
-40z"/>
<path d="M517 464 c-11 -11 -8 -84 3 -84 6 0 11 17 11 38 l2 37 7 -40 8 -40
-2 44 c-1 42 -13 60 -29 45z"/>
<path d="M614 437 c3 -16 6 -44 6 -61 1 -44 16 -13 22 44 4 40 3 46 -14 46
-16 0 -19 -5 -14 -29z"/>
<path d="M700 426 c0 -25 4 -46 8 -46 12 0 14 77 2 85 -6 4 -10 -11 -10 -39z"/>
<path d="M770 460 c0 -8 3 -33 7 -55 6 -36 7 -38 14 -15 7 25 7 25 8 2 2 -44
21 -11 21 36 0 30 -3 42 -9 33 -7 -11 -9 -11 -14 0 -4 11 -6 11 -6 -1 -1 -13
-2 -13 -11 0 -9 13 -10 13 -10 0z"/>
<path d="M845 441 c3 -18 5 -48 5 -65 1 -44 16 -14 24 48 5 41 4 47 -8 37 -11
-9 -15 -9 -20 1 -3 7 -4 -2 -1 -21z"/>
<path d="M957 463 c-9 -8 -9 -78 0 -86 11 -11 33 14 33 38 0 43 -16 66 -33 48z
m10 -60 c-3 -10 -5 -2 -5 17 0 19 2 27 5 18 2 -10 2 -26 0 -35z"/>
<path d="M1012 418 l1 -53 7 45 6 45 5 -40 6 -40 1 48 c2 36 -2 47 -13 47 -12
0 -15 -12 -13 -52z"/>
<path d="M1067 464 c-12 -13 -8 -71 6 -83 16 -12 27 -5 27 18 0 14 -2 14 -10
1 -7 -11 -10 -6 -10 20 0 27 3 32 11 20 8 -12 10 -12 7 4 -3 21 -20 31 -31 20z"/>
<path d="M1123 420 c-2 -28 1 -50 6 -50 5 0 8 10 8 23 -1 12 2 34 6 50 5 19 4
27 -5 27 -9 0 -14 -18 -15 -50z"/>
<path d="M1172 423 c3 -46 20 -63 26 -26 3 15 1 16 -7 3 -9 -13 -11 -13 -11 3
0 9 5 17 10 17 6 0 10 11 10 25 0 16 -6 25 -16 25 -12 0 -14 -10 -12 -47z"/>
<path d="M1222 423 c1 -43 2 -44 5 -10 2 20 8 37 13 37 5 0 11 -17 13 -37 4
-33 4 -32 3 7 -1 34 -5 46 -18 48 -15 3 -18 -4 -16 -45z"/>
<path d="M1317 464 c-13 -14 -7 -23 11 -17 16 6 16 5 0 -14 -29 -32 -20 -73
11 -54 7 5 11 23 9 46 -3 37 -16 53 -31 39z m23 -58 c0 -3 -4 -8 -10 -11 -5
-3 -10 -1 -10 4 0 6 5 11 10 11 6 0 10 -2 10 -4z"/>
<path d="M757 273 c-10 -10 -8 -86 3 -103 7 -11 10 3 10 48 0 62 -1 67 -13 55z"/>
<path d="M571 218 c-1 -46 18 -81 20 -36 1 23 1 22 8 -2 l7 -25 7 25 c4 14 6
39 6 55 0 26 -2 27 -9 10 l-9 -20 0 20 c-1 15 -3 17 -10 6 -7 -11 -9 -11 -14
0 -3 8 -6 -7 -6 -33z"/>
<path d="M642 208 l1 -53 7 45 7 45 1 -37 c2 -40 21 -54 20 -15 0 43 -9 67
-23 67 -12 0 -15 -12 -13 -52z"/>
<path d="M702 214 c3 -47 20 -64 26 -27 3 15 1 16 -7 3 -9 -13 -11 -13 -11 3
0 9 5 17 11 17 15 0 7 42 -9 48 -10 3 -12 -8 -10 -44z"/>
<path d="M801 208 c1 -55 5 -50 11 15 2 20 0 37 -4 37 -4 0 -7 -24 -7 -52z"/>
<path d="M843 210 c-1 -40 2 -50 15 -50 12 0 13 3 5 11 -7 7 -8 21 -2 42 12
42 11 47 -3 47 -9 0 -14 -18 -15 -50z"/>
</g>
</svg>
